<?xml version="1.0" standalone="no"?>
<!DOCTYPE svg PUBLIC "-//W3C//DTD SVG 20010904//EN"
 "http://www.w3.org/TR/2001/REC-SVG-20010904/DTD/svg10.dtd">
<svg version="1.0" xmlns="http://www.w3.org/2000/svg"
 width="800.000000pt" height="800.000000pt" viewBox="0 0 800.000000 800.000000"
 preserveAspectRatio="xMidYMid meet">
<metadata>
Created by potrace 1.14, written by Peter Selinger 2001-2017
</metadata>
<g transform="translate(0.000000,800.000000) scale(0.100000,-0.100000)"
fill="#000000" stroke="none">
<path d="M640 4000 l0 -4001 2283 4 c2474 4 2349 1 2667 57 457 81 847 255
1130 503 280 246 480 602 574 1027 46 208 60 352 60 640 1 360 -27 561 -114
821 -200 600 -677 995 -1372 1136 l-88 18 0 51 0 52 91 22 c718 174 1126 637
1220 1385 18 146 16 512 -5 664 -58 428 -199 748 -445 1003 -279 291 -651 470
-1166 562 -291 52 -181 49 -2592 53 l-2243 4 0 -4001z m3978 2842 c369 -71
601 -229 728 -497 48 -101 77 -206 95 -340 16 -127 6 -414 -20 -525 -94 -408
-343 -636 -797 -727 -81 -16 -184 -18 -1206 -20 l-1118 -4 0 1071 0 1071 1103
-4 c1079 -3 1104 -4 1215 -25z m-158 -3162 c593 -38 948 -280 1093 -745 39
-125 58 -256 64 -441 23 -699 -237 -1134 -772 -1289 -212 -61 -165 -59 -1407
-62 l-1138 -4 0 1276 0 1275 1008 0 c554 0 1072 -5 1152 -10z"/>
</g>
</svg>
